<svg xmlns="http://www.w3.org/2000/svg" width="20" height="18" viewBox="0 0 20 18">
  <g fill="none" fill-rule="evenodd">
    <rect width="20" height="18" fill="#72D6CC"/>
    <polygon fill="#384040" fill-rule="nonzero" points="5.286 3.214 6.571 3.857 6.571 17.357 5.286 17.357"/>
    <rect width="7.714" height="12.857" x="8.5" y="5.143" fill="#384040" fill-rule="nonzero"/>
    <path fill="#384040" fill-rule="nonzero" d="M12.3571429,2.25 C12.3571429,2.43 12.2157143,2.57142857 12.0357143,2.57142857 L8.17857143,2.57142857 C7.99857143,2.57142857 7.85714286,2.43 7.85714286,2.25 C7.85714286,2.07 7.99857143,1.92857143 8.17857143,1.92857143 L12.0357143,1.92857143 C12.2157143,1.92857143 12.3571429,2.07 12.3571429,2.25 Z"/>
    <path fill="#384040" fill-rule="nonzero" d="M16.2142857,0.642857143 L16.5357143,0.642857143 C16.7157143,0.642857143 16.8571429,0.501428571 16.8571429,0.321428571 C16.8571429,0.141428571 16.7157143,0 16.5357143,0 L5.92857143,0 C4.86142857,0 4,0.861428571 4,1.92857143 C4,1.92857143 4,14.5671429 4,16.0714286 C4,17.1385714 4.86142857,18 5.92857143,18 L16.2142857,18 C16.8571429,18 16.8571429,17.3571429 16.8571429,17.3571429 L16.8571429,3.21428571 L16.2142857,3.21428571 L16.2142857,0.642857143 Z M6.89285714,1.28571429 L4.81642857,1.28571429 C5.04142857,0.9 5.45285714,0.642857143 5.92857143,0.642857143 L15.25,0.642857143 C15.4557143,0.642857143 15.5714286,0.642857143 15.5714286,0.642857143 L15.5714286,1.28571429 L13.3214286,1.28571429 C13.1414286,1.28571429 13,1.42714286 13,1.60714286 C13,1.78714286 13.1414286,1.92857143 13.3214286,1.92857143 L15.5714286,1.92857143 L15.5714286,3.21428571 C15.5714286,3.21428571 9.37428571,3.21428571 6.89285714,3.21428571 L5.92857143,3.21428571 C5.22142857,3.21428571 4.64285714,2.63571429 4.64285714,1.92857143 L6.89285714,1.92857143 C7.07285714,1.92857143 7.21428571,1.78714286 7.21428571,1.60714286 C7.21428571,1.42714286 7.07285714,1.28571429 6.89285714,1.28571429 Z M16.2142857,16.7142857 C16.2142857,17.3571429 15.5714286,17.3571429 15.5714286,17.3571429 L7.21428571,17.3571429 L7.21428571,15.75 C7.21428571,15.57 7.07285714,15.4285714 6.89285714,15.4285714 C6.71285714,15.4285714 6.57142857,15.57 6.57142857,15.75 L6.57142857,17.3571429 L5.92857143,17.3571429 C5.22142857,17.3571429 4.64285714,16.7785714 4.64285714,16.0714286 L4.64285714,3.35571429 C4.98357143,3.66428571 5.43357143,3.85714286 5.92857143,3.85714286 L6.57142857,3.85714286 L6.57142857,13.8214286 C6.57142857,14.0014286 6.71285714,14.1428571 6.89285714,14.1428571 C7.07285714,14.1428571 7.21428571,14.0014286 7.21428571,13.8214286 L7.21428571,3.85714286 L16.2142857,3.85714286 L16.2142857,16.7142857 Z"/>
  </g>
</svg>
