<svg xmlns="http://www.w3.org/2000/svg" width="21" height="18" viewBox="0 0 21 18">
  <g fill="none" fill-rule="evenodd">
    <rect width="20" height="18" x=".5" fill="#72D6CC"/>
    <rect width="5.478" height="1" x="9.609" y="15.652" fill="#384040" fill-rule="nonzero"/>
    <rect width="7.826" height="1" x="6.478" y="17.217" fill="#384040" fill-rule="nonzero"/>
    <path fill="#384040" fill-rule="nonzero" d="M13.0130435,12.3808696 C12.4425217,12.9443478 11.2208696,13.3818261 10.3286957,13.6330435 C10.5713043,12.7486957 11.0173913,11.5043478 11.5808696,10.9486957 L13.0130435,12.3808696 Z"/>
    <path fill="#384040" fill-rule="nonzero" d="M19.6495652,3.52173913 C19.3678261,3.41217391 19.093913,3.36521739 18.8278261,3.36521739 C17.7556522,3.36521739 16.8869565,4.0773913 16.8869565,4.0773913 C16.8869565,4.0773913 14.5313043,5.96347826 12.5904348,7.58347826 C12.3243478,5.54086957 11.7452174,2.71565217 11.173913,1.56521739 C10.3913043,0 9.60869565,0 9.60869565,0 L4.13043478,0 C4.13043478,0 3.34782609,0 2.56521739,1.56521739 C1.97043478,2.75478261 1.37565217,5.76782609 1.12521739,7.82608696 L1.90782609,7.82608696 C1.99391304,7.11391304 2.12695652,6.29217391 2.28347826,5.47826087 L11.4556522,5.47826087 C11.5026087,5.73652174 11.5495652,6.0026087 11.5965217,6.26086957 C11.713913,6.94173913 11.8078261,7.60695652 11.8704348,8.17826087 C11.1426087,8.79652174 10.54,9.32086957 10.2426087,9.61043478 C9.46,10.3930435 8.95130435,12.0208696 8.72434783,12.8887826 C8.4973913,12.8034783 8.23913043,12.747913 7.96521739,12.747913 C7.53478261,12.747913 7.0573913,12.8887826 6.57217391,13.3035652 L6.47826087,13.3035652 C6.32173913,13.3035652 6.18086957,13.3035652 6.03217391,13.287913 C5.89130435,13.287913 5.75043478,13.2714783 5.6173913,13.2566087 C2.85478261,12.9834783 2.05652174,11.3634783 1.84521739,10.173913 L1.0626087,10.173913 C1.30521739,11.7234783 2.36173913,13.86 5.89913043,14.0713043 C4.82695652,15.7226087 5.26521739,17.913913 5.26521739,17.913913 C5.26521739,17.913913 5.69565217,18 6.34521739,18 C8.39565217,18 9.18608696,17.2173913 9.18608696,17.2173913 C10.086087,16.5286957 10.3678261,15.6521739 10.3678261,15.6521739 C10.4773913,15.206087 10.4147826,14.7913043 10.2817391,14.4469565 C11.1582609,14.22 12.7782609,13.7191304 13.5608696,12.9286957 C14.6721739,11.826 19.093913,6.29295652 19.093913,6.29295652 C19.093913,6.29295652 20.1426087,5.05565217 19.6495652,3.52173913 Z M6.47826087,4.69565217 L2.44,4.69565217 C2.69043478,3.52956522 2.98,2.47304348 3.26173913,1.9173913 C3.71565217,1.00956522 4.10695652,0.813913043 4.19304348,0.782608696 L6.47826087,0.782608696 L6.47826087,4.69565217 Z M7.26086957,4.69565217 L7.26086957,0.782608696 L9.54608696,0.782608696 C9.61652174,0.806086957 9.91391304,0.954782609 10.2817391,1.56521739 C10.3443478,1.66695652 10.4069565,1.78434783 10.4773913,1.9173913 C10.7591304,2.47304348 11.0486957,3.52956522 11.2991304,4.69565217 L7.26086957,4.69565217 Z M6.35478261,17.1313043 C5.88521739,17.193913 5.43913043,17.2103478 4.96956522,17.2103478 C4.93826087,16.7329565 4.96173913,16.2547826 5.05565217,15.786 C5.24347826,14.8241739 5.97130435,13.352087 7.16869565,13.5477391 C7.94347826,13.6729565 8.64782609,14.3702609 8.64782609,15.1755652 C8.64782609,16.3173913 7.30173913,16.9434783 6.35478261,17.1313043 Z M9.32869565,13.6330435 C9.18782609,13.6721739 9.05478261,13.7034783 8.9373913,13.7347826 L8.76521739,13.5704348 L8.71826087,13.5156522 L8.65565217,13.4538261 L8.44434783,13.2346957 C8.53826087,12.8433913 8.69478261,12.3033913 8.89043478,11.7790435 L10.4008696,13.2816522 C10.0330435,13.4217391 9.6573913,13.5391304 9.32869565,13.6330435 Z M11.1678261,12.9443478 L9.22773913,11.0113043 C9.39991304,10.6669565 9.58773913,10.3695652 9.79904348,10.166087 L10.5816522,10.9486957 L12.0138261,12.3808696 C11.8017391,12.5843478 11.5043478,12.78 11.1678261,12.9443478 Z M17.8669565,5.08695652 C17.726087,5.50173913 17.5069565,5.77565217 17.4834783,5.79913043 C17.4521739,5.84608696 14.0791304,10.0643478 12.5452174,11.8095652 L10.3695652,9.63391304 C12.1147826,8.10078261 16.3252174,4.71913043 16.38,4.6886087 C16.38,4.68078261 17.0686957,4.1486087 17.8286087,4.1486087 C17.8826087,4.1486087 17.9381739,4.15643478 17.9929565,4.15643478 C18.0313043,4.50782609 17.9686957,4.82869565 17.8669565,5.08695652 Z"/>
    <path fill="#384040" fill-rule="nonzero" d="M9.64782609 15.1747826C9.64782609 15.5034783 9.5226087 15.872087 9.13913043 16.2547826 8.46608696 16.9278261 7.52695652 17.1547826 6.75217391 17.2025217 6.70521739 16.4113043 6.76782609 14.9791304 7.70695652 14.0407826 7.92608696 13.8216522 8.14521739 13.6721739 8.36434783 13.5946957 8.6773913 13.6886087 8.92782609 13.8686087 9.05304348 13.9625217L9.10782609 14.0102609 9.20173913 14.1033913C9.38173913 14.306087 9.64782609 14.6973913 9.64782609 15.1747826zM18.8669565 5.08695652C18.726087 5.50173913 18.5069565 5.77565217 18.4834783 5.79913043 18.4521739 5.84608696 15.0791304 10.0643478 13.5452174 11.8095652L12.1521739 10.4165217C13.8973913 8.8833913 18.1078261 5.50173913 18.1626087 5.47121739 18.1626087 5.4626087 18.4521739 5.23565217 18.8669565 5.08695652zM11.2991304 4.69565217L8.04347826 4.69565217 8.04347826 1.56521739 10.2817391 1.56521739C10.3443478 1.66695652 10.4069565 1.78434783 10.4773913 1.9173913 10.7591304 2.47304348 11.0486957 3.52956522 11.2991304 4.69565217zM6.47826087 1.56521739L6.47826087 4.69565217 3.4026087 4.69565217C3.60608696 3.85043478 3.82521739 3.13043478 4.04434783 2.7 4.49826087 1.79217391 4.88956522 1.59652174 4.97565217 1.56521739L6.47826087 1.56521739z"/>
    <path fill="#384040" fill-rule="nonzero" d="M11.2991304 4.69565217L8.04347826 4.69565217 8.04347826 1.56521739 10.2817391 1.56521739C10.3443478 1.66695652 10.4069565 1.78434783 10.4773913 1.9173913 10.7591304 2.47304348 11.0486957 3.52956522 11.2991304 4.69565217zM6.47826087 1.56521739L6.47826087 4.69565217 3.4026087 4.69565217C3.60608696 3.85043478 3.82521739 3.13043478 4.04434783 2.7 4.49826087 1.79217391 4.88956522 1.59652174 4.97565217 1.56521739L6.47826087 1.56521739zM11.8704348 8.17826087C11.1426087 8.79652174 10.54 9.32086957 10.2426087 9.61043478 9.46 10.3930435 8.95130435 12.0208696 8.72434783 12.8887826 8.4973913 12.8034783 8.23913043 12.747913 7.96521739 12.747913 7.53478261 12.747913 7.0573913 12.8887826 6.57217391 13.3035652L6.47826087 13.3035652C6.32173913 13.3035652 6.18086957 13.3035652 6.03217391 13.287913 5.89130435 13.287913 5.75043478 13.2714783 5.6173913 13.2566087 4.31826087 12.3573913 4.13043478 10.9330435 4.13043478 10.173913 4.13043478 9.37565217 4.33391304 7.79478261 4.63130435 6.26086957L11.5965217 6.26086957C11.713913 6.94173913 11.8078261 7.60695652 11.8704348 8.17826087z"/>
    <circle cx="1.391" cy="9" r="1" fill="#384040" fill-rule="nonzero"/>
    <path fill="#384040" fill-rule="nonzero" d="M18.2173913 16.0434783C18.2173913 15.8274783 18.042087 15.6521739 17.826087 15.6521739L16.2608696 15.6521739C16.0448696 15.6521739 15.8695652 15.8274783 15.8695652 16.0434783L15.8695652 16.0434783C15.8695652 16.2594783 16.0448696 16.4347826 16.2608696 16.4347826L17.826087 16.4347826C18.042087 16.4347826 18.2173913 16.2594783 18.2173913 16.0434783L18.2173913 16.0434783zM20.5652174 16.0434783C20.5652174 15.8274783 20.389913 15.6521739 20.173913 15.6521739L19.3913043 15.6521739C19.1753043 15.6521739 19 15.8274783 19 16.0434783L19 16.0434783C19 16.2594783 19.1753043 16.4347826 19.3913043 16.4347826L20.173913 16.4347826C20.389913 16.4347826 20.5652174 16.2594783 20.5652174 16.0434783L20.5652174 16.0434783zM17.4347826 17.6086957C17.4347826 17.3926957 17.2594783 17.2173913 17.0434783 17.2173913L15.4782609 17.2173913C15.2622609 17.2173913 15.0869565 17.3926957 15.0869565 17.6086957L15.0869565 17.6086957C15.0869565 17.8246957 15.2622609 18 15.4782609 18L17.0434783 18C17.2594783 18 17.4347826 17.8246957 17.4347826 17.6086957L17.4347826 17.6086957zM19.7826087 17.6086957C19.7826087 17.3926957 19.6073043 17.2173913 19.3913043 17.2173913L18.6086957 17.2173913C18.3926957 17.2173913 18.2173913 17.3926957 18.2173913 17.6086957L18.2173913 17.6086957C18.2173913 17.8246957 18.3926957 18 18.6086957 18L19.3913043 18C19.6073043 18 19.7826087 17.8246957 19.7826087 17.6086957L19.7826087 17.6086957z"/>
  </g>
</svg>
