<svg xmlns="http://www.w3.org/2000/svg" width="21" height="18" viewBox="0 0 21 18">
  <g fill="none" fill-rule="evenodd">
    <rect width="20" height="18" x=".5" fill="#72D6CC"/>
    <path fill="#384040" fill-rule="nonzero" d="M18.0925,10.5825 C17.845,10.0875 17.335,9.75 16.75,9.75 C16.6225,9.75 16.495,9.765 16.375,9.8025 C16.975,9.95175 17.425,10.47 17.485,11.09925 C17.5,11.145 17.5,11.1975 17.5,11.25 L17.5,12.4125 C17.7625,11.835 17.965,11.22 18.0925,10.5825 Z M10.75,0 C10.6225,0 10.5025,0 10.375,0.015 C14.815,0.1875 18.43,3.585 18.9325,7.9425 C18.9475,8.0775 18.9625,8.22 18.97,8.3625 C18.9925,8.5725 19,8.7825 19,9 C19,9.15 18.9925,9.3 18.985,9.45 C18.97675,9.6 18.9625,9.75 18.94675,9.9 C18.91675,10.1475 18.87925,10.38675 18.82675,10.6275 C18.61,11.835 18.1525,12.9525 17.49925,13.9425 L17.49925,16.5 C17.49925,16.5525 17.49925,16.605 17.48425,16.65 C17.42425,17.28 16.9735,17.7975 16.37425,17.94675 C16.495,17.985 16.6225,18 16.75,18 C17.575,18 18.25,17.325 18.25,16.5 L18.25,13.9425 C19.1875,12.525 19.75,10.83075 19.75,9 C19.75,4.0275 15.7225,0 10.75,0 Z M10.3225,0.7575 C10.2175,0.75 10.105,0.75 10,0.75 C5.7925,0.75 2.3275,3.885 1.8175,7.9425 L1.8175,7.965 C1.8025,8.1 1.7875,8.2275 1.78,8.3625 C1.7575,8.5725 1.75,8.7825 1.75,9 C1.75,9.15 1.7575,9.3 1.765,9.45 C1.7725,9.6 1.7875,9.75 1.8025,9.9 C1.9,10.785 2.1475,11.6325 2.5,12.4125 L2.5,11.25 C2.5,11.01 2.5525,10.785 2.6575,10.5825 C2.5525,10.0725 2.5,9.54 2.5,9 C2.5,4.5825 5.965,0.9825 10.3225,0.7575 Z M4.75,9.75 C4.6225,9.75 4.495,9.765 4.375,9.8025 C4.975,9.95175 5.425,10.47 5.485,11.09925 C5.5,11.145 5.5,11.1975 5.5,11.25 L5.5,16.5 C5.5,16.5525 5.5,16.605 5.485,16.65 C5.425,17.28 4.975,17.7975 4.375,17.9475 C4.495,17.985 4.6225,18 4.75,18 C5.575,18 6.25,17.325 6.25,16.5 L6.25,11.25 C6.25,10.425 5.575,9.75 4.75,9.75 Z"/>
    <path fill="#384040" fill-rule="nonzero" d="M4.75 11.25L4.75 16.5C4.75 16.7775 4.6 17.0175 4.375 17.145 4.2625 17.2125 4.135 17.25 4 17.25L4 10.5C4.135 10.5 4.2625 10.5375 4.375 10.605 4.6 10.7325 4.75 10.9725 4.75 11.25zM16.75 11.25L16.75 16.5C16.75 16.7775 16.6 17.0175 16.375 17.145 16.2625 17.2125 16.135 17.25 16 17.25L16 10.5C16.135 10.5 16.2625 10.5375 16.375 10.605 16.6 10.7325 16.75 10.9725 16.75 11.25z"/>
    <path fill="#384040" fill-rule="nonzero" d="M10,0 C5.02975,0 1,4.02975 1,9 C1,10.82925 1.5595,12.52125 2.5,13.941 L2.5,16.5 C2.5,17.328 3.172,18 4,18 C4.828,18 5.5,17.328 5.5,16.5 L5.5,11.25 C5.5,10.422 4.828,9.75 4,9.75 C3.172,9.75 2.5,10.422 2.5,11.25 L2.5,12.4095 C2.02375,11.37 1.75,10.21875 1.75,9 C1.75,4.44375 5.44375,0.75 10,0.75 C14.55625,0.75 18.25,4.44375 18.25,9 C18.25,10.21875 17.97625,11.37 17.5,12.4095 L17.5,11.25 C17.5,10.422 16.828,9.75 16,9.75 C15.172,9.75 14.5,10.422 14.5,11.25 L14.5,16.5 C14.5,17.328 15.172,18 16,18 C16.828,18 17.5,17.328 17.5,16.5 L17.5,13.941 C18.4405,12.52125 19,10.83 19,9 C19,4.02975 14.97025,0 10,0 Z M3.25,11.25 C3.25,10.83525 3.586,10.5 4,10.5 C4.414,10.5 4.75,10.83525 4.75,11.25 L4.75,16.5 C4.75,16.91475 4.414,17.25 4,17.25 C3.586,17.25 3.25,16.91475 3.25,16.5 L3.25,11.25 Z M16.75,16.5 C16.75,16.91475 16.41475,17.25 16,17.25 C15.58525,17.25 15.25,16.91475 15.25,16.5 L15.25,11.25 C15.25,10.83525 15.58525,10.5 16,10.5 C16.41475,10.5 16.75,10.83525 16.75,11.25 L16.75,16.5 Z"/>
  </g>
</svg>
